<?xml version="1.0"?>
<svg width="47.99999999999999" height="23.999999999999996" xmlns="http://www.w3.org/2000/svg" xmlns:svg="http://www.w3.org/2000/svg" xmlns:xlink="http://www.w3.org/1999/xlink">
 <!-- Created with SVG-edit - http://svg-edit.googlecode.com/ -->
 <defs>
  <symbol id="svg_1" viewBox="0 0 24 24" fill="#007fff" xmlns="http://www.w3.org/2000/svg">
   <path d="m7,10l5,5l5,-5l-10,0z" id="svg_7"/>
   <path fill="none" d="m0,0l24,0l0,24l-24,0l0,-24z" id="svg_8"/>
  </symbol>
  <symbol fill="#007fff" id="svg_3" viewBox="0 0 24 48" xmlns="http://www.w3.org/2000/svg">
   <circle r="3.2" cy="12" cx="12" id="svg_9"/>
   <path d="m9,2l-1.83,2l-3.17,0c-1.1,0 -2,0.9 -2,2l0,12c0,1.1 0.9,2 2,2l16,0c1.1,0 2,-0.9 2,-2l0,-12c0,-1.1 -0.9,-2 -2,-2l-3.17,0l-1.83,-2l-6,0zm3,15c-2.76,0 -5,-2.24 -5,-5s2.24,-5 5,-5s5,2.24 5,5s-2.24,5 -5,5z" id="svg_10"/>
   <path fill="none" d="m0,0l24,0l0,24l-24,0l0,-24z" id="svg_11"/>
  </symbol>
  <symbol viewBox="0 0 24 24" id="svg_6" xmlns="http://www.w3.org/2000/svg">
   <path id="svg_5" d="m0,0l24,0l0,24l-24,0l0,-24z" fill="none"/>
   <path id="svg_12" fill="#007fff" d="m12,17c1.1,0 2,-0.9 2,-2s-0.9,-2 -2,-2s-2,0.9 -2,2s0.9,2 2,2zm6,-9l-1,0l0,-2c0,-2.76 -2.24,-5 -5,-5s-5,2.24 -5,5l1.9,0c0,-1.71 1.39,-3.1 3.1,-3.1c1.71,0 3.1,1.39 3.1,3.1l0,2l-9.1,0c-1.1,0 -2,0.9 -2,2l0,10c0,1.1 0.9,2 2,2l12,0c1.1,0 2,-0.9 2,-2l0,-10c0,-1.1 -0.9,-2 -2,-2zm0,12l-12,0l0,-10l12,0l0,10z"/>
  </symbol>
 </defs>
 <g>
  <title>Layer 1</title>
  <use stroke="null" transform="matrix(1.3757104301580196,0,0,1.3757104301580196,-1.3283052883284039,-2.500595145061445) " x="-13.2544" y="3.33626" xlink:href="#svg_1" id="svg_2"/>
  <use stroke="null" transform="matrix(1.5005645751953125,0,0,1.5005645751953125,-3.003387451171875,0) " x="-13" xlink:href="#svg_3" id="svg_4"/>
  <use id="svg_14" xlink:href="#svg_6" y="0" x="12"/>
 </g>
</svg>