<?xml version="1.0"?>
<svg width="24" height="24" xmlns="http://www.w3.org/2000/svg" xmlns:svg="http://www.w3.org/2000/svg">
 <g>
  <title>Layer 1</title>
  <path id="svg_1" fill="none" d="m0,0l24,0l0,24l-24,0l0,-24z"/>
  <path fill="#007fff" id="svg_2" d="m15,21l2,0l0,-2l-2,0l0,2zm4,-12l2,0l0,-2l-2,0l0,2zm-16,-4l0,14c0,1.1 0.9,2 2,2l4,0l0,-2l-4,0l0,-14l4,0l0,-2l-4,0c-1.1,0 -2,0.9 -2,2zm16,-2l0,2l2,0c0,-1.1 -0.9,-2 -2,-2zm-8,20l2,0l0,-22l-2,0l0,22zm8,-6l2,0l0,-2l-2,0l0,2zm-4,-12l2,0l0,-2l-2,0l0,2zm4,8l2,0l0,-2l-2,0l0,2zm0,8c1.1,0 2,-0.9 2,-2l-2,0l0,2z"/>
 </g>
</svg>