<svg width="36" height="36" xmlns="http://www.w3.org/2000/svg">
 <g>
  <title>background</title>
  <rect x="-1" y="-1" width="582" height="402" id="canvas_background" fill="none"/>
 </g>

 <g>
  <title>Layer 1</title>
  <path id="svg_1" d="m18.414,5.8276c1.1,0 2,-0.9 2,-2s-0.9,-2 -2,-2s-2,0.9 -2,2s0.9,2 2,2zm6.5,7l0,10.5l-1,0l0,-10.5c0,-0.28 -0.22,-0.5 -0.5,-0.5s-0.5,0.22 -0.5,0.5l0,1l-1,0l0,-0.69c-1.46,-0.38 -2.7,-1.29 -3.51,-2.52c-0.31,0.87 -0.49,1.78 -0.49,2.71c0,0.23 0.02,0.46 0.03,0.69l1.97,2.81l0,6.5l-2,0l0,-5l-1.78,-2.54l-0.22,3.54l-3,4l-1.6,-1.2l2.6,-3.47l0,-5.33c0,-1.15 0.18,-2.29 0.5,-3.39l-1.5,0.85l0,3.54l-2,0l0,-4.7l5.4,-3.07l0,0.01c0.59,-0.31 1.32,-0.33 1.94,0.03c0.36,0.21 0.63,0.51 0.8,0.85l0,0l0.79,1.67c0.65,1.31 2.01,2.21 3.57,2.21c0.83,0 1.5,0.67 1.5,1.5z"/>
 </g>
</svg>