<?xml version="1.0" encoding="UTF-8" standalone="no"?>
<svg width="24" xmlns="http://www.w3.org/2000/svg" xmlns:xlink="http://www.w3.org/1999/xlink" height="33">
 <g>
  <title>Layer 1</title>
  <g id="svg_8" stroke="null">
   <circle id="svg_1" cy="12" cx="12" r="3.2"/>
   <path id="svg_2" d="m9 2l-1.83 2h-3.17c-1.1 0-2 0.9-2 2v12c0 1.1 0.9 2 2 2h16c1.1 0 2-0.9 2-2v-12c0-1.1-0.9-2-2-2h-3.17l-1.83-2h-6zm3 15c-2.76 0-5-2.24-5-5s2.24-5 5-5 5 2.24 5 5-2.24 5-5 5z"/>
   <path id="svg_3" d="m0 0h24v24h-24v-24z" fill="none"/>
   <use id="svg_5" xlink:href="#svg_4" transform="matrix(1.6213 0 0 2.3324 2.0776 73.855)" y="-37.034492" x="-5.787433"/>
  </g>
 </g>
 <defs>
  <symbol id="svg_4" xmlns="http://www.w3.org/2000/svg" viewBox="0 0 24 24">
   <path id="svg_6" d="m7 10l5 5 5-5h-10z"/>
   <path id="svg_7" fill="none" d="m0 0h24v24h-24v-24z"/>
  </symbol>
 </defs>
</svg>
