<?xml version="1.0" encoding="UTF-8"?>
<svg xmlns="http://www.w3.org/2000/svg" xmlns:xlink="http://www.w3.org/1999/xlink" width="32px" height="41px" viewBox="0 0 32 41" version="1.1">
<g id="surface1">
<path d="M 19.730469 14.644531 C 19.636719 14.300781 19.480469 13.269531 18.941406 13.5 C 18.679688 13.613281 18.867188 14.011719 18.941406 14.277344 C 19.507812 16.292969 20.101562 18.167969 20.675781 20.179688 C 21.164062 21.902344 21.6875 23.535156 22.171875 25.246094 C 22.328125 25.808594 22.550781 26.609375 22.589844 26.78125 C 22.839844 27.609375 18.996094 27.039062 18.996094 27.039062 C 18.996094 27.039062 18.996094 33.453125 18.996094 36.136719 C 18.996094 36.59375 19.039062 37.105469 18.941406 37.410156 C 18.824219 37.78125 18.535156 38.121094 18.207031 38.242188 C 17.25 38.597656 16.4375 38.023438 16.265625 37.253906 C 16.183594 36.890625 16.238281 36.394531 16.238281 35.929688 C 16.238281 33.582031 16.238281 31.601562 16.238281 29.171875 C 16.238281 28.753906 16.28125 28.375 16.265625 27.949219 C 16.25 27.558594 16.285156 26.988281 16 26.9375 C 15.460938 26.835938 15.507812 27.542969 15.53125 28.003906 C 15.644531 30.636719 15.523438 31.785156 15.53125 34.160156 C 15.53125 34.585938 15.53125 35.113281 15.53125 35.644531 C 15.53125 36.15625 15.589844 36.707031 15.503906 37.074219 C 15.386719 37.5625 15.011719 37.996094 14.609375 38.164062 C 13.523438 38.621094 12.375 38.070312 12.144531 37.125 C 12.050781 36.742188 12.117188 36.175781 12.117188 35.644531 C 12.117188 32.191406 12.0625 28.628906 12.0625 25.300781 C 12.0625 22.371094 12.089844 18.550781 12.089844 15.136719 C 12.089844 14.738281 12.25 13.882812 11.722656 13.941406 C 11.382812 13.976562 11.433594 14.320312 11.433594 14.796875 C 11.433594 16.789062 11.433594 18.46875 11.433594 20.492188 C 11.433594 21.300781 11.515625 22.210938 11.355469 22.675781 C 11.203125 23.109375 10.761719 23.542969 10.121094 23.53125 C 9.542969 23.523438 9.019531 23.0625 8.886719 22.542969 C 8.808594 22.226562 8.863281 21.710938 8.863281 21.296875 C 8.863281 19.152344 8.773438 17.082031 8.863281 14.980469 C 8.90625 13.894531 8.792969 12.667969 9.148438 11.757812 C 9.613281 10.578125 10.714844 9.503906 12.222656 9.394531 C 13.40625 9.304688 14.375 9.417969 15.503906 9.417969 C 17.046875 9.417969 18.546875 9.300781 19.546875 9.808594 C 20.230469 10.15625 20.847656 10.769531 21.253906 11.550781 C 21.433594 11.898438 21.519531 12.285156 21.644531 12.695312 C 21.988281 13.804688 22.351562 14.992188 22.75 16.203125 C 23.117188 17.324219 23.519531 18.496094 23.824219 19.738281 C 23.925781 20.148438 24.148438 20.605469 24.113281 20.984375 C 24.03125 21.921875 22.847656 22.453125 22.09375 21.816406 C 21.710938 21.496094 21.621094 20.835938 21.4375 20.257812 C 21.105469 19.226562 20.875 18.3125 20.492188 17.214844 C 20.257812 16.550781 20.183594 15.96875 19.914062 15.136719 C 19.859375 14.972656 19.78125 14.828125 19.730469 14.644531 Z M 19.730469 14.644531 "/>
<path d="M 18.8125 5.703125 C 18.84375 6.683594 18.265625 7.6875 17.578125 8.144531 C 17.410156 8.253906 17.054688 8.46875 16.867188 8.535156 C 16.3125 8.726562 15.574219 8.71875 15.058594 8.585938 C 14.683594 8.492188 14.085938 8.125 13.824219 7.886719 C 13.664062 7.742188 13.453125 7.457031 13.351562 7.289062 C 12.515625 5.875 13.128906 4.132812 14.191406 3.414062 C 14.523438 3.191406 14.953125 3.046875 15.398438 2.921875 C 15.660156 2.847656 16.242188 2.882812 16.5 2.945312 C 17.363281 3.160156 17.96875 3.71875 18.417969 4.324219 C 18.605469 4.832031 18.792969 5.1875 18.8125 5.703125 Z M 18.8125 5.703125 "/>
</g>
</svg>
