<?xml version="1.0" standalone="no"?>
<!DOCTYPE svg PUBLIC "-//W3C//DTD SVG 20010904//EN"
 "http://www.w3.org/TR/2001/REC-SVG-20010904/DTD/svg10.dtd">
<svg version="1.0" xmlns="http://www.w3.org/2000/svg"
 width="80.000000pt" height="80.000000pt" viewBox="0 0 80.000000 80.000000"
 preserveAspectRatio="xMidYMid meet">

<g transform="translate(0.000000,80.000000) scale(0.100000,-0.100000)"
fill="#888" stroke="none">
<path d="M631 632 c-72 -36 -76 -49 -79 -282 l-3 -209 50 17 51 16 0 107 c0
99 2 108 20 114 16 5 20 15 20 46 0 36 -2 40 -20 34 -17 -5 -20 -2 -20 24 0
39 9 61 26 61 10 0 14 13 14 45 0 51 -7 54 -59 27z"/>
<path d="M123 613 c-7 -2 -13 -20 -13 -39 0 -66 83 -112 113 -63 28 44 -50
123 -100 102z"/>
<path d="M284 586 c-35 -35 -43 -63 -22 -84 36 -36 108 12 108 71 0 33 -13 47
-42 47 -5 0 -25 -15 -44 -34z"/>
<path d="M418 609 c-26 -15 -22 -53 8 -89 21 -25 33 -30 58 -28 52 5 48 75 -7
108 -37 23 -36 23 -59 9z"/>
<path d="M117 323 l2 -147 50 -18 51 -17 0 144 0 145 -33 14 c-78 32 -72 43
-70 -121z"/>
<path d="M310 451 l-45 -19 -3 -145 -3 -146 53 18 53 18 3 146 c1 81 -1 147
-5 146 -5 0 -28 -8 -53 -18z"/>
<path d="M412 322 l3 -146 48 -18 47 -18 0 148 0 148 -50 16 -51 16 3 -146z"/>
</g>
</svg>
